<svg width="20" height="20" viewBox="0 0 20 20" fill="none" xmlns="http://www.w3.org/2000/svg">
<path d="M11.6667 18.9583H8.33333C3.80833 18.9583 1.875 17.025 1.875 12.5V7.5C1.875 2.97501 3.80833 1.04167 8.33333 1.04167H11.6667C16.1917 1.04167 18.125 2.97501 18.125 7.5V12.5C18.125 17.025 16.1917 18.9583 11.6667 18.9583ZM8.33333 2.29167C4.49167 2.29167 3.125 3.65834 3.125 7.5V12.5C3.125 16.3417 4.49167 17.7083 8.33333 17.7083H11.6667C15.5083 17.7083 16.875 16.3417 16.875 12.5V7.5C16.875 3.65834 15.5083 2.29167 11.6667 2.29167H8.33333Z" fill="#A19FA1"/>
<path d="M12.5 9.025H7.5C6.46667 9.025 5.625 8.18333 5.625 7.15V6.31667C5.625 5.28333 6.46667 4.44167 7.5 4.44167H12.5C13.5333 4.44167 14.375 5.28333 14.375 6.31667V7.15C14.375 8.18333 13.5333 9.025 12.5 9.025ZM7.5 5.69167C7.15833 5.69167 6.875 5.975 6.875 6.31667V7.15C6.875 7.49167 7.15833 7.775 7.5 7.775H12.5C12.8417 7.775 13.125 7.49167 13.125 7.15V6.31667C13.125 5.975 12.8417 5.69167 12.5 5.69167H7.5Z" fill="#A19FA1"/>
<path d="M6.79167 12.4333C6.68333 12.4333 6.575 12.4083 6.475 12.3667C6.375 12.325 6.28333 12.2667 6.20833 12.1917C6.05 12.0333 5.96667 11.825 5.96667 11.6C5.96667 11.4917 5.98333 11.3833 6.025 11.2833C6.06667 11.175 6.125 11.0917 6.20833 11.0083C6.24167 10.975 6.28333 10.9333 6.33333 10.9083C6.375 10.875 6.425 10.85 6.475 10.8333C6.525 10.8083 6.58333 10.7917 6.63333 10.7833C6.9 10.725 7.19167 10.8167 7.38333 11.0083C7.45833 11.0833 7.525 11.175 7.56667 11.2833C7.60833 11.3833 7.63333 11.4917 7.63333 11.6C7.63333 11.825 7.54167 12.0333 7.38333 12.1917C7.225 12.35 7.01667 12.4333 6.79167 12.4333Z" fill="#A19FA1"/>
<path d="M10.1333 12.4333C9.90833 12.4333 9.7 12.35 9.54167 12.1917C9.38333 12.0333 9.3 11.825 9.3 11.6C9.3 11.4917 9.31667 11.3833 9.35833 11.2833C9.4 11.175 9.45833 11.0917 9.54167 11.0083C9.575 10.975 9.61667 10.9333 9.66667 10.9083C9.70833 10.875 9.75833 10.85 9.80833 10.8333C9.85833 10.8083 9.91667 10.7917 9.96667 10.7833C10.125 10.75 10.2917 10.7667 10.45 10.8333C10.55 10.875 10.6417 10.9333 10.7167 11.0083C10.7917 11.0917 10.8583 11.175 10.9 11.2833C10.9417 11.3833 10.9667 11.4917 10.9667 11.6C10.9667 11.825 10.875 12.0333 10.7167 12.1917C10.5583 12.35 10.35 12.4333 10.1333 12.4333Z" fill="#A19FA1"/>
<path d="M13.4583 12.4333C13.35 12.4333 13.2417 12.4083 13.1417 12.3667C13.0417 12.325 12.95 12.2667 12.875 12.1917C12.7917 12.1083 12.7333 12.0167 12.6917 11.9167C12.65 11.8167 12.6333 11.7083 12.6333 11.6C12.6333 11.4917 12.65 11.3833 12.6917 11.2833C12.7333 11.175 12.7917 11.0917 12.875 11.0083C13.1833 10.7 13.7417 10.7 14.05 11.0083C14.2083 11.1667 14.3 11.3833 14.3 11.6C14.3 11.825 14.2083 12.0333 14.05 12.1917C13.9 12.3417 13.6917 12.4333 13.4583 12.4333Z" fill="#A19FA1"/>
<path d="M6.8 15.7667C6.575 15.7667 6.36667 15.6833 6.20833 15.525C6.05 15.3667 5.95833 15.1583 5.95833 14.9333C5.95833 14.7167 6.05 14.5 6.20833 14.3417C6.24167 14.3083 6.29167 14.2667 6.33333 14.2417C6.375 14.2083 6.425 14.1833 6.475 14.1667C6.525 14.1417 6.58333 14.125 6.63333 14.1167C6.90833 14.0667 7.19167 14.15 7.38333 14.3417C7.425 14.3833 7.45833 14.425 7.49167 14.4667C7.51667 14.5167 7.54167 14.5667 7.56667 14.6167C7.58333 14.6667 7.6 14.7167 7.61667 14.7667C7.625 14.825 7.63333 14.875 7.63333 14.9333C7.63333 15.1583 7.54167 15.3667 7.38333 15.525C7.225 15.6833 7.01667 15.7667 6.8 15.7667Z" fill="#A19FA1"/>
<path d="M10.1333 15.7667C9.90833 15.7667 9.7 15.6833 9.54167 15.525C9.38333 15.3667 9.29167 15.1583 9.29167 14.9333C9.29167 14.7167 9.38333 14.5 9.54167 14.3417C9.73333 14.15 10.025 14.0667 10.2917 14.1167C10.3417 14.125 10.4 14.1417 10.45 14.1667C10.5 14.1833 10.55 14.2083 10.5917 14.2417C10.6333 14.2667 10.675 14.3083 10.7167 14.3417C10.875 14.5 10.9583 14.7167 10.9583 14.9333C10.9583 15.1583 10.875 15.3667 10.7167 15.525C10.5583 15.6833 10.35 15.7667 10.1333 15.7667Z" fill="#A19FA1"/>
<path d="M13.4583 15.7667C13.2417 15.7667 13.0333 15.6833 12.875 15.525C12.7167 15.3667 12.6333 15.1583 12.6333 14.9333C12.6333 14.7167 12.7167 14.5 12.875 14.3417C12.95 14.2667 13.0417 14.2083 13.1417 14.1667C13.45 14.0417 13.825 14.1083 14.05 14.3417C14.2083 14.5 14.2917 14.7167 14.2917 14.9333C14.2917 15.1583 14.2083 15.3667 14.05 15.525C13.975 15.6 13.8833 15.6583 13.7833 15.7C13.6833 15.7417 13.575 15.7667 13.4583 15.7667Z" fill="#A19FA1"/>
</svg>
