<svg width="20" height="20" viewBox="0 0 20 20" fill="none" xmlns="http://www.w3.org/2000/svg">
<path fill-rule="evenodd" clip-rule="evenodd" d="M10 18.9583C9.26669 18.9583 8.54168 18.8 7.96668 18.4833L3.51669 16.0084C2.30835 15.3417 1.3667 13.7333 1.3667 12.35V7.64165C1.3667 6.25832 2.30835 4.65836 3.51669 3.98336L7.96668 1.51667C9.10835 0.883338 10.8917 0.883338 12.0334 1.51667L16.4834 3.99165C17.6917 4.65831 18.6333 6.26666 18.6333 7.64999V12.3583C18.6333 13.7417 17.6917 15.3416 16.4834 16.0166L12.0334 18.4833C11.4584 18.8 10.7334 18.9583 10 18.9583ZM10 2.29167C9.47502 2.29167 8.95836 2.4 8.57503 2.60834L7.30208 3.31632L14.2032 7.30138L16.7054 5.85365C16.4634 5.5275 16.1757 5.25244 15.875 5.08331L11.425 2.60834C11.0417 2.4 10.525 2.29167 10 2.29167ZM14.7917 8.41254L17.2751 6.97403C17.3446 7.20603 17.3833 7.43575 17.3833 7.64999V12.3583C17.3833 13.2833 16.675 14.475 15.875 14.925L11.425 17.4C11.1992 17.5266 10.9224 17.6154 10.6249 17.6666V10.8262L13.5417 9.1366V11.0334C13.5417 11.375 13.8251 11.6584 14.1667 11.6584C14.5084 11.6584 14.7917 11.3751 14.7917 11.0501V8.41254ZM9.37492 10.8217L2.72423 6.97285C2.65514 7.20454 2.6167 7.4345 2.6167 7.64999V12.3583C2.6167 13.275 3.32503 14.475 4.12503 14.925L8.57503 17.4C8.80081 17.5265 9.07755 17.6154 9.37492 17.6666V10.8217ZM12.9653 8.01759L9.99979 9.73333L3.29378 5.85257C3.53598 5.52695 3.82402 5.25263 4.12503 5.08331L6.03546 4.02078L12.9653 8.01759Z" fill="#3B3F44"/>
</svg>
