<svg width="20" height="20" viewBox="0 0 20 20" fill="none" xmlns="http://www.w3.org/2000/svg">
<path fill-rule="evenodd" clip-rule="evenodd" d="M12.1001 18.9581H12.25C16.3583 18.9581 18.1167 17.1998 18.1083 13.0914V9.34977C18.1083 9.28404 18.0979 9.22047 18.0785 9.16067C18.5207 8.51044 18.717 7.72272 18.6333 6.9L18.4 4.58333C18.0583 2.06666 16.9167 1.04166 14.4667 1.04166H8.06667L8.04987 1.04189L8.03335 1.04166H5.49168C3.04168 1.04166 1.90002 2.06666 1.55002 4.60833L1.32502 6.9C1.23989 7.73709 1.44463 8.53795 1.90327 9.19462C1.89027 9.24434 1.88334 9.29634 1.88334 9.34977V13.0914C1.88334 17.1998 3.63334 18.9581 7.75001 18.9581H7.89986C7.90544 18.9583 7.91105 18.9583 7.91667 18.9583H12.0833C12.089 18.9583 12.0946 18.9583 12.1001 18.9581ZM4.70002 10.625C4.13828 10.625 3.60596 10.4993 3.13334 10.2616V13.0914C3.13334 16.3423 4.23262 17.5918 7.29167 17.7003V16.25C7.29167 14.5 8.25 13.5417 10 13.5417C11.75 13.5417 12.7083 14.5 12.7083 16.25V17.7C15.7611 17.5895 16.8583 16.3394 16.8583 13.0914V10.2446C16.3775 10.4933 15.8333 10.625 15.2583 10.625C14.2136 10.625 13.2388 10.1037 12.6048 9.30856C12.5322 9.41243 12.4528 9.5125 12.3667 9.60833C11.75 10.2667 10.9167 10.625 10 10.625C9.08333 10.625 8.25 10.2667 7.65833 9.60833C7.55973 9.49862 7.46993 9.38336 7.38915 9.2632C6.75639 10.0839 5.7645 10.625 4.70002 10.625ZM11.4583 17.7081V16.25C11.4583 15.2 11.05 14.7917 10 14.7917C8.95 14.7917 8.54167 15.2 8.54167 16.25V17.7081H11.4583ZM5.49168 2.29166C3.66668 2.29166 3.05835 2.84166 2.79168 4.75L2.56668 7.025C2.50002 7.65833 2.69168 8.25 3.09168 8.69166C3.49168 9.13333 4.05835 9.375 4.70002 9.375C5.75002 9.375 6.72502 8.49166 6.82502 7.45L7.34169 2.29166H5.49168ZM11.885 7.59065C11.8682 8.03264 11.7044 8.4447 11.4167 8.76666C10.7083 9.55 9.29167 9.55 8.58333 8.76666C8.23333 8.38333 8.06667 7.85833 8.125 7.3L8.625 2.29166H11.3558L11.8833 7.575L11.885 7.59065ZM13.1576 7.6138C13.3441 8.58261 14.2639 9.375 15.2583 9.375C15.8917 9.375 16.4583 9.13333 16.8667 8.69166C17.2667 8.25 17.45 7.65833 17.3917 7.025L17.1583 4.73333C16.9 2.85 16.2917 2.29166 14.4667 2.29166H12.6519L13.1417 7.175C13.1565 7.32299 13.1617 7.46945 13.1576 7.6138Z" fill="#808A93"/>
</svg>
