<svg width="20" height="20" viewBox="0 0 20 20" fill="none" xmlns="http://www.w3.org/2000/svg">
<path d="M12.4084 15.1833H5.08341C4.65008 15.1833 4.24173 15.1417 3.87507 15.0583C3.6834 15.0333 3.45008 14.9666 3.20841 14.875C2.10008 14.4583 0.791748 13.4333 0.791748 10.8833V6.59165C0.791748 3.86665 2.35841 2.30001 5.08341 2.30001H12.4084C14.7084 2.30001 16.1917 3.39999 16.5917 5.39999C16.6667 5.76665 16.7001 6.15831 16.7001 6.59165V10.8833C16.7001 13.625 15.1417 15.1833 12.4084 15.1833ZM5.09173 3.56669C3.04173 3.56669 2.05006 4.55833 2.05006 6.60833V10.9C2.05006 12.3917 2.57508 13.3084 3.65008 13.7167C3.81674 13.775 3.97508 13.8167 4.12508 13.8417C4.44175 13.9083 4.75006 13.9417 5.09173 13.9417H12.4167C14.4667 13.9417 15.4584 12.95 15.4584 10.9V6.60833C15.4584 6.25833 15.4334 5.94999 15.3751 5.66666C15.0917 4.24999 14.1251 3.56669 12.4167 3.56669H5.09173Z" fill="#3B3F44"/>
<path d="M14.9085 17.6833H7.58349C6.87516 17.6833 6.24182 17.5833 5.70015 17.375C4.47515 16.9166 3.67514 15.95 3.40014 14.5666C3.35847 14.3583 3.42516 14.1416 3.57516 14C3.72516 13.85 3.94183 13.7916 4.15016 13.8416C4.42516 13.9 4.73349 13.9333 5.08349 13.9333H12.4085C14.4585 13.9333 15.4502 12.9417 15.4502 10.8917V6.59997C15.4502 6.24997 15.4252 5.94163 15.3668 5.6583C15.3252 5.44996 15.3918 5.24164 15.5335 5.09164C15.6835 4.94164 15.8918 4.87496 16.1002 4.92496C18.1002 5.33329 19.2002 6.81664 19.2002 9.09997V13.3917C19.2002 16.125 17.6418 17.6833 14.9085 17.6833ZM4.9335 15.1833C5.20016 15.6666 5.60016 16.0083 6.15016 16.2083C6.55016 16.3583 7.03347 16.4333 7.59181 16.4333H14.9168C16.9668 16.4333 17.9585 15.4417 17.9585 13.3917V9.09997C17.9585 7.7833 17.5501 6.90831 16.7085 6.44997C16.7085 6.49997 16.7085 6.54997 16.7085 6.59997V10.8917C16.7085 13.6167 15.1418 15.1833 12.4168 15.1833H5.09181C5.03347 15.1833 4.9835 15.1833 4.9335 15.1833Z" fill="#3B3F44"/>
<path d="M8.74982 11.575C7.19148 11.575 5.9248 10.3083 5.9248 8.75C5.9248 7.19167 7.19148 5.92499 8.74982 5.92499C10.3082 5.92499 11.5748 7.19167 11.5748 8.75C11.5748 10.3083 10.3082 11.575 8.74982 11.575ZM8.74982 7.17499C7.88315 7.17499 7.1748 7.88333 7.1748 8.75C7.1748 9.61667 7.88315 10.325 8.74982 10.325C9.61648 10.325 10.3248 9.61667 10.3248 8.75C10.3248 7.88333 9.61648 7.17499 8.74982 7.17499Z" fill="#3B3F44"/>
<path d="M3.98364 11.2084C3.64198 11.2084 3.35864 10.9251 3.35864 10.5834V6.91671C3.35864 6.57504 3.64198 6.29171 3.98364 6.29171C4.32531 6.29171 4.60864 6.57504 4.60864 6.91671V10.5834C4.60864 10.9251 4.33364 11.2084 3.98364 11.2084Z" fill="#3B3F44"/>
<path d="M13.5083 11.2084C13.1666 11.2084 12.8833 10.9251 12.8833 10.5834V6.91671C12.8833 6.57504 13.1666 6.29171 13.5083 6.29171C13.85 6.29171 14.1333 6.57504 14.1333 6.91671V10.5834C14.1333 10.9251 13.8583 11.2084 13.5083 11.2084Z" fill="#3B3F44"/>
</svg>
