<svg width="20" height="20" viewBox="0 0 20 20" fill="none" xmlns="http://www.w3.org/2000/svg">
<path fill-rule="evenodd" clip-rule="evenodd" d="M10.4419 8.58505C10.1978 8.82912 9.80211 8.8291 9.55804 8.58502L4.9625 3.98909C4.71843 3.745 4.71845 3.34927 4.96254 3.1052C5.20662 2.86114 5.60235 2.86115 5.84642 3.10524L10.442 7.70117C10.686 7.94526 10.686 8.34099 10.4419 8.58505Z" fill="#3B3F44"/>
<path fill-rule="evenodd" clip-rule="evenodd" d="M9.55824 11.4149C9.80233 11.1709 10.1981 11.1709 10.4421 11.415L15.0377 16.0109C15.2817 16.255 15.2817 16.6507 15.0376 16.8948C14.7935 17.1389 14.3978 17.1388 14.1537 16.8948L9.5582 12.2988C9.31413 12.0547 9.31415 11.659 9.55824 11.4149Z" fill="#3B3F44"/>
<path fill-rule="evenodd" clip-rule="evenodd" d="M9.55808 8.58506C9.31399 8.34099 9.31397 7.94526 9.55804 7.70117L14.1536 3.10524C14.3976 2.86116 14.7934 2.86114 15.0375 3.10521C15.2816 3.34927 15.2816 3.745 15.0375 3.98909L10.442 8.58502C10.1979 8.82911 9.80216 8.82912 9.55808 8.58506Z" fill="#3B3F44"/>
<path fill-rule="evenodd" clip-rule="evenodd" d="M10.4418 11.4149C10.6858 11.659 10.6859 12.0547 10.4418 12.2988L5.84626 16.8948C5.60219 17.1388 5.20646 17.1389 4.96237 16.8948C4.71829 16.6507 4.71827 16.255 4.96234 16.0109L9.55788 11.415C9.80194 11.1709 10.1977 11.1709 10.4418 11.4149Z" fill="#3B3F44"/>
</svg>
