<svg width="16" height="16" viewBox="0 0 16 16" fill="none" xmlns="http://www.w3.org/2000/svg">
<path d="M7.32004 4.12667L4.84671 1.65333C4.80004 1.60667 4.74004 1.56667 4.67338 1.54C4.66671 1.54 4.66004 1.54 4.65338 1.53333C4.60004 1.51333 4.54671 1.5 4.48671 1.5C4.35338 1.5 4.22671 1.55333 4.13338 1.64667L1.64671 4.12667C1.45338 4.32 1.45338 4.64 1.64671 4.83333C1.84004 5.02667 2.16004 5.02667 2.35338 4.83333L3.98671 3.2V14C3.98671 14.2733 4.21338 14.5 4.48671 14.5C4.76004 14.5 4.98671 14.2733 4.98671 14V3.20667L6.61338 4.83333C6.71338 4.93333 6.84004 4.98 6.96671 4.98C7.09338 4.98 7.22004 4.93333 7.32004 4.83333C7.51338 4.64 7.51338 4.32667 7.32004 4.12667Z" fill="#3B3F44"/>
<path d="M14.3534 11.1667C14.16 10.9733 13.84 10.9733 13.6467 11.1667L12.0134 12.8V2C12.0134 1.72667 11.7867 1.5 11.5134 1.5C11.24 1.5 11.0134 1.72667 11.0134 2V12.7933L9.3867 11.1667C9.19337 10.9733 8.87337 10.9733 8.68003 11.1667C8.4867 11.36 8.4867 11.68 8.68003 11.8733L11.1534 14.3467C11.2 14.3933 11.26 14.4333 11.3267 14.46C11.3334 14.46 11.34 14.46 11.3467 14.4667C11.4 14.4867 11.46 14.5 11.52 14.5C11.6534 14.5 11.78 14.4467 11.8734 14.3533L14.3534 11.8733C14.5467 11.6733 14.5467 11.36 14.3534 11.1667Z" fill="#3B3F44"/>
</svg>
