<svg width="12" height="12" viewBox="0 0 12 12" fill="none" xmlns="http://www.w3.org/2000/svg">
<path d="M3.22498 11.375C3.01998 11.375 2.84998 11.205 2.84998 11V1C2.84998 0.795 3.01998 0.625 3.22498 0.625C3.42998 0.625 3.59998 0.795 3.59998 1V11C3.59998 11.205 3.42998 11.375 3.22498 11.375Z" fill="#808A93"/>
<path d="M3.47502 8.875C3.33502 8.875 3.20502 8.8 3.14002 8.665C3.05002 8.48 3.12502 8.255 3.31002 8.165L7.46002 6.115C8.07002 5.8 8.41502 5.42 8.40002 5.065C8.38502 4.72 8.01502 4.365 7.38002 4.095L3.33002 2.345C3.13502 2.26 3.05002 2.04 3.13002 1.85C3.21002 1.66 3.43502 1.57 3.62502 1.655L7.67502 3.405C8.92502 3.935 9.13502 4.655 9.15002 5.035C9.17502 5.7 8.69502 6.32 7.80002 6.78L3.64502 8.835C3.59002 8.865 3.53002 8.875 3.47502 8.875Z" fill="#808A93"/>
</svg>
