<svg width="20" height="20" viewBox="0 0 20 20" fill="none" xmlns="http://www.w3.org/2000/svg">
<path d="M2.91667 15.625C2.575 15.625 2.29167 15.3417 2.29167 15V5.83335C2.29167 2.15835 3.40833 1.04169 7.08333 1.04169H12.9167C16.5917 1.04169 17.7083 2.15835 17.7083 5.83335V14.1667C17.7083 14.3 17.7083 14.425 17.7 14.5584C17.675 14.9 17.3667 15.1667 17.0333 15.1417C16.6917 15.1167 16.425 14.8167 16.45 14.475C16.4583 14.375 16.4583 14.2667 16.4583 14.1667V5.83335C16.4583 2.85835 15.9 2.29169 12.9167 2.29169H7.08333C4.1 2.29169 3.54167 2.85835 3.54167 5.83335V15C3.54167 15.3417 3.25833 15.625 2.91667 15.625Z" fill="#A19FA1"/>
<path d="M14.1667 18.9583H5.83333C3.88333 18.9583 2.29167 17.3667 2.29167 15.4167V14.875C2.29167 13.2167 3.64167 11.875 5.29167 11.875H17.0833C17.425 11.875 17.7083 12.1583 17.7083 12.5V15.4167C17.7083 17.3667 16.1167 18.9583 14.1667 18.9583ZM5.29167 13.125C4.325 13.125 3.54167 13.9083 3.54167 14.875V15.4167C3.54167 16.6833 4.56667 17.7083 5.83333 17.7083H14.1667C15.4333 17.7083 16.4583 16.6833 16.4583 15.4167V13.125H5.29167Z" fill="#A19FA1"/>
<path d="M13.3333 6.45831H6.66667C6.325 6.45831 6.04167 6.17498 6.04167 5.83331C6.04167 5.49165 6.325 5.20831 6.66667 5.20831H13.3333C13.675 5.20831 13.9583 5.49165 13.9583 5.83331C13.9583 6.17498 13.675 6.45831 13.3333 6.45831Z" fill="#A19FA1"/>
<path d="M10.8333 9.375H6.66667C6.325 9.375 6.04167 9.09167 6.04167 8.75C6.04167 8.40833 6.325 8.125 6.66667 8.125H10.8333C11.175 8.125 11.4583 8.40833 11.4583 8.75C11.4583 9.09167 11.175 9.375 10.8333 9.375Z" fill="#A19FA1"/>
</svg>
