<svg width="20" height="20" viewBox="0 0 20 20" fill="none" xmlns="http://www.w3.org/2000/svg">
<path d="M14.6833 8.01666H10.3083C9.96667 8.01666 9.68333 7.73333 9.68333 7.39166C9.68333 7.05 9.96667 6.76666 10.3083 6.76666H14.6833C15.025 6.76666 15.3083 7.05 15.3083 7.39166C15.3083 7.73333 15.0333 8.01666 14.6833 8.01666Z" fill="#A19FA1"/>
<path d="M5.93333 8.65C5.775 8.65 5.61667 8.59167 5.49167 8.46667L4.86667 7.84167C4.625 7.6 4.625 7.2 4.86667 6.95833C5.10833 6.71667 5.50833 6.71667 5.75 6.95833L5.93333 7.14167L7.36667 5.70833C7.60833 5.46667 8.00833 5.46667 8.25 5.70833C8.49167 5.95 8.49167 6.35 8.25 6.59167L6.375 8.46667C6.25833 8.58333 6.1 8.65 5.93333 8.65Z" fill="#A19FA1"/>
<path d="M14.6833 13.85H10.3083C9.96667 13.85 9.68333 13.5667 9.68333 13.225C9.68333 12.8833 9.96667 12.6 10.3083 12.6H14.6833C15.025 12.6 15.3083 12.8833 15.3083 13.225C15.3083 13.5667 15.0333 13.85 14.6833 13.85Z" fill="#A19FA1"/>
<path d="M5.93333 14.4833C5.775 14.4833 5.61667 14.425 5.49167 14.3L4.86667 13.675C4.625 13.4333 4.625 13.0333 4.86667 12.7917C5.10833 12.55 5.50833 12.55 5.75 12.7917L5.93333 12.975L7.36667 11.5417C7.60833 11.3 8.00833 11.3 8.25 11.5417C8.49167 11.7833 8.49167 12.1833 8.25 12.425L6.375 14.3C6.25833 14.4167 6.1 14.4833 5.93333 14.4833Z" fill="#A19FA1"/>
<path d="M12.5 18.9583H7.5C2.975 18.9583 1.04167 17.025 1.04167 12.5V7.5C1.04167 2.97501 2.975 1.04167 7.5 1.04167H12.5C17.025 1.04167 18.9583 2.97501 18.9583 7.5V12.5C18.9583 17.025 17.025 18.9583 12.5 18.9583ZM7.5 2.29167C3.65833 2.29167 2.29167 3.65834 2.29167 7.5V12.5C2.29167 16.3417 3.65833 17.7083 7.5 17.7083H12.5C16.3417 17.7083 17.7083 16.3417 17.7083 12.5V7.5C17.7083 3.65834 16.3417 2.29167 12.5 2.29167H7.5Z" fill="#A19FA1"/>
</svg>
