<svg width="16" height="16" viewBox="0 0 16 16" fill="none" xmlns="http://www.w3.org/2000/svg">
<path d="M11.3334 1.33333H4.66671C2.82671 1.33333 1.33337 2.82 1.33337 4.65333V8.64V9.30667C1.33337 11.14 2.82671 12.6267 4.66671 12.6267H5.66671C5.84671 12.6267 6.08671 12.7467 6.20004 12.8933L7.20004 14.22C7.64004 14.8067 8.36004 14.8067 8.80004 14.22L9.80004 12.8933C9.92671 12.7267 10.1267 12.6267 10.3334 12.6267H11.3334C13.1734 12.6267 14.6667 11.14 14.6667 9.30667V4.65333C14.6667 2.82 13.1734 1.33333 11.3334 1.33333ZM5.33337 8C4.96004 8 4.66671 7.7 4.66671 7.33333C4.66671 6.96667 4.96671 6.66667 5.33337 6.66667C5.70004 6.66667 6.00004 6.96667 6.00004 7.33333C6.00004 7.7 5.70671 8 5.33337 8ZM8.00004 8C7.62671 8 7.33337 7.7 7.33337 7.33333C7.33337 6.96667 7.63337 6.66667 8.00004 6.66667C8.36671 6.66667 8.66671 6.96667 8.66671 7.33333C8.66671 7.7 8.37337 8 8.00004 8ZM10.6667 8C10.2934 8 10 7.7 10 7.33333C10 6.96667 10.3 6.66667 10.6667 6.66667C11.0334 6.66667 11.3334 6.96667 11.3334 7.33333C11.3334 7.7 11.04 8 10.6667 8Z" fill="white"/>
</svg>
