<svg width="24" height="24" viewBox="0 0 24 24" fill="none" xmlns="http://www.w3.org/2000/svg">
<path d="M12.0133 17.6867C10.46 17.6867 8.90666 17.44 7.43333 16.9467C6.87333 16.7533 6.44666 16.36 6.25999 15.8467C6.06666 15.3333 6.13333 14.7667 6.43999 14.26L7.20666 12.9867C7.36666 12.72 7.51333 12.1867 7.51333 11.8733V9.94667C7.51333 7.46667 9.53333 5.44667 12.0133 5.44667C14.4933 5.44667 16.5133 7.46667 16.5133 9.94667V11.8733C16.5133 12.18 16.66 12.72 16.82 12.9933L17.58 14.26C17.8667 14.74 17.92 15.32 17.7267 15.8467C17.5333 16.3733 17.1133 16.7733 16.5867 16.9467C15.12 17.44 13.5667 17.6867 12.0133 17.6867ZM12.0133 6.44667C10.0867 6.44667 8.51333 8.01333 8.51333 9.94667V11.8733C8.51333 12.36 8.31333 13.08 8.06666 13.5L7.29999 14.7733C7.15333 15.02 7.11333 15.28 7.19999 15.5C7.27999 15.7267 7.47999 15.9 7.75333 15.9933C10.54 16.9267 13.4933 16.9267 16.28 15.9933C16.52 15.9133 16.7067 15.7333 16.7933 15.4933C16.88 15.2533 16.86 14.9933 16.7267 14.7733L15.96 13.5C15.7067 13.0667 15.5133 12.3533 15.5133 11.8667V9.94667C15.5133 8.01333 13.9467 6.44667 12.0133 6.44667Z" fill="white"/>
<path d="M13.2533 6.62667C13.2067 6.62667 13.16 6.62 13.1133 6.60667C12.92 6.55333 12.7333 6.51333 12.5533 6.48667C11.9867 6.41333 11.44 6.45333 10.9267 6.60667C10.74 6.66667 10.54 6.60667 10.4133 6.46667C10.2867 6.32667 10.2467 6.12667 10.32 5.94667C10.5933 5.24667 11.26 4.78667 12.02 4.78667C12.78 4.78667 13.4467 5.24 13.72 5.94667C13.7867 6.12667 13.7533 6.32667 13.6267 6.46667C13.5267 6.57333 13.3867 6.62667 13.2533 6.62667Z" fill="white"/>
<path d="M12.0133 19.2067C11.3533 19.2067 10.7133 18.94 10.2466 18.4733C9.77997 18.0067 9.51331 17.3667 9.51331 16.7067H10.5133C10.5133 17.1 10.6733 17.4867 10.9533 17.7667C11.2333 18.0467 11.62 18.2067 12.0133 18.2067C12.84 18.2067 13.5133 17.5333 13.5133 16.7067H14.5133C14.5133 18.0867 13.3933 19.2067 12.0133 19.2067Z" fill="white"/>
</svg>
