<svg width="20" height="20" viewBox="0 0 20 20" fill="none" xmlns="http://www.w3.org/2000/svg">
<path d="M6.66667 4.79166C6.325 4.79166 6.04167 4.50832 6.04167 4.16666V1.66666C6.04167 1.32499 6.325 1.04166 6.66667 1.04166C7.00833 1.04166 7.29167 1.32499 7.29167 1.66666V4.16666C7.29167 4.50832 7.00833 4.79166 6.66667 4.79166Z" fill="#A19FA1"/>
<path d="M13.3333 4.79166C12.9917 4.79166 12.7083 4.50832 12.7083 4.16666V1.66666C12.7083 1.32499 12.9917 1.04166 13.3333 1.04166C13.675 1.04166 13.9583 1.32499 13.9583 1.66666V4.16666C13.9583 4.50832 13.675 4.79166 13.3333 4.79166Z" fill="#A19FA1"/>
<path d="M12.5 11.4583H5.83333C5.49167 11.4583 5.20833 11.175 5.20833 10.8333C5.20833 10.4917 5.49167 10.2083 5.83333 10.2083H12.5C12.8417 10.2083 13.125 10.4917 13.125 10.8333C13.125 11.175 12.8417 11.4583 12.5 11.4583Z" fill="#A19FA1"/>
<path d="M10 14.7917H5.83333C5.49167 14.7917 5.20833 14.5083 5.20833 14.1667C5.20833 13.825 5.49167 13.5417 5.83333 13.5417H10C10.3417 13.5417 10.625 13.825 10.625 14.1667C10.625 14.5083 10.3417 14.7917 10 14.7917Z" fill="#A19FA1"/>
<path d="M12.5 18.9583H7.5C2.81667 18.9583 1.875 16.75 1.875 13.1833V8.04166C1.875 4.09166 3.20833 2.48332 6.63333 2.29166H13.3333C13.3417 2.29166 13.3583 2.29166 13.3667 2.29166C16.7917 2.48332 18.125 4.09166 18.125 8.04166V13.1833C18.125 16.75 17.1833 18.9583 12.5 18.9583ZM6.66667 3.54166C4.33333 3.67499 3.125 4.40832 3.125 8.04166V13.1833C3.125 16.375 3.73333 17.7083 7.5 17.7083H12.5C16.2667 17.7083 16.875 16.375 16.875 13.1833V8.04166C16.875 4.41666 15.675 3.67499 13.3167 3.54166H6.66667Z" fill="#A19FA1"/>
</svg>
