<svg width="16" height="16" viewBox="0 0 16 16" fill="none" xmlns="http://www.w3.org/2000/svg">
<path fill-rule="evenodd" clip-rule="evenodd" d="M7.08382 1.41567C3.95331 1.41567 1.41553 3.95345 1.41553 7.08396C1.41553 10.2145 3.95331 12.7523 7.08382 12.7523C8.46914 12.7523 9.73838 12.2553 10.723 11.4299L13.731 14.4379C13.9262 14.6331 14.2428 14.6331 14.4381 14.4379C14.6333 14.2426 14.6333 13.926 14.4381 13.7308L11.4301 10.7228C12.2553 9.73822 12.7521 8.46912 12.7521 7.08396C12.7521 3.95345 10.2143 1.41567 7.08382 1.41567ZM2.41553 7.08396C2.41553 4.50574 4.50559 2.41567 7.08382 2.41567C9.66205 2.41567 11.7521 4.50574 11.7521 7.08396C11.7521 9.66219 9.66205 11.7523 7.08382 11.7523C4.50559 11.7523 2.41553 9.66219 2.41553 7.08396Z" fill="#AAB4BC"/>
</svg>
