<svg width="20" height="20" viewBox="0 0 20 20" fill="none" xmlns="http://www.w3.org/2000/svg">
<path d="M10.3833 18.9583C10.2417 18.9583 10.1 18.9583 9.95833 18.95C5.29167 18.7416 1.39167 14.9833 1.06667 10.4C0.783333 6.46664 3.05833 2.79164 6.725 1.24997C7.76667 0.81664 8.31667 1.14997 8.55 1.39164C8.78333 1.62497 9.10833 2.16664 8.675 3.15831C8.29167 4.04164 8.1 4.98331 8.10833 5.94997C8.125 9.64164 11.1917 12.775 14.9333 12.925C15.475 12.95 16.0083 12.9083 16.525 12.8166C17.625 12.6166 18.0833 13.0583 18.2583 13.3416C18.4333 13.625 18.6333 14.2333 17.9667 15.1333C16.2 17.55 13.3917 18.9583 10.3833 18.9583ZM2.30833 10.3083C2.59167 14.275 5.975 17.525 10.0083 17.7C12.75 17.8333 15.35 16.5833 16.95 14.4C17.075 14.225 17.1333 14.1 17.1583 14.0333C17.0833 14.025 16.95 14.0166 16.7417 14.0583C16.1333 14.1666 15.5 14.2083 14.875 14.1833C10.475 14.0083 6.875 10.3166 6.85 5.96664C6.85 4.81664 7.075 3.70831 7.53333 2.66664C7.61667 2.48331 7.63333 2.35831 7.64167 2.29164C7.56667 2.29164 7.43333 2.30831 7.21667 2.39997C4.04167 3.73331 2.075 6.91664 2.30833 10.3083Z" fill="#A19FA1"/>
</svg>
