<svg width="16" height="16" viewBox="0 0 16 16" fill="none" xmlns="http://www.w3.org/2000/svg">
<path fill-rule="evenodd" clip-rule="evenodd" d="M8.35355 2.48435C8.54881 2.67962 8.54879 2.99621 8.35352 3.19146L4.67678 6.86789C4.48151 7.06314 4.16493 7.06313 3.96967 6.86786C3.77442 6.67259 3.77443 6.35601 3.9697 6.16075L7.64645 2.48432C7.84172 2.28907 8.1583 2.28908 8.35355 2.48435Z" fill="white"/>
<path fill-rule="evenodd" clip-rule="evenodd" d="M7.64643 13.5157C7.45118 13.3204 7.45119 13.0038 7.64646 12.8086L11.3232 9.13215C11.5185 8.9369 11.8351 8.93691 12.0303 9.13218C12.2256 9.32745 12.2256 9.64403 12.0303 9.83929L8.35354 13.5157C8.15827 13.711 7.84169 13.711 7.64643 13.5157Z" fill="white"/>
<path fill-rule="evenodd" clip-rule="evenodd" d="M7.64643 2.48435C7.84169 2.28908 8.15827 2.28907 8.35354 2.48432L12.0303 6.16075C12.2256 6.35601 12.2256 6.67259 12.0303 6.86786C11.8351 7.06313 11.5185 7.06314 11.3232 6.86789L7.64646 3.19146C7.45119 2.99621 7.45118 2.67962 7.64643 2.48435Z" fill="white"/>
<path fill-rule="evenodd" clip-rule="evenodd" d="M8.35355 13.5157C8.1583 13.711 7.84172 13.711 7.64645 13.5157L3.9697 9.83929C3.77443 9.64403 3.77442 9.32745 3.96967 9.13218C4.16493 8.93691 4.48151 8.9369 4.67678 9.13215L8.35352 12.8086C8.54879 13.0038 8.54881 13.3204 8.35355 13.5157Z" fill="white"/>
</svg>
