<svg width="20" height="20" viewBox="0 0 20 20" fill="none" xmlns="http://www.w3.org/2000/svg">
<path fill-rule="evenodd" clip-rule="evenodd" d="M10.4422 3.10544C10.6863 3.34953 10.6862 3.74526 10.4421 3.98932L5.84622 8.58486C5.60213 8.82893 5.2064 8.82891 4.96234 8.58483C4.71827 8.34074 4.71829 7.94501 4.96237 7.70094L9.5583 3.1054C9.80239 2.86134 10.1981 2.86135 10.4422 3.10544Z" fill="#3B3F44"/>
<path fill-rule="evenodd" clip-rule="evenodd" d="M9.55804 16.8946C9.31397 16.6505 9.31399 16.2548 9.55808 16.0107L14.154 11.4152C14.3981 11.1711 14.7938 11.1711 15.0379 11.4152C15.282 11.6593 15.2819 12.055 15.0379 12.2991L10.4419 16.8946C10.1978 17.1387 9.80211 17.1387 9.55804 16.8946Z" fill="#3B3F44"/>
<path fill-rule="evenodd" clip-rule="evenodd" d="M9.55804 3.10544C9.80211 2.86135 10.1978 2.86134 10.4419 3.1054L15.0379 7.70094C15.2819 7.94501 15.282 8.34074 15.0379 8.58483C14.7938 8.82891 14.3981 8.82893 14.154 8.58486L9.55808 3.98932C9.31399 3.74526 9.31397 3.34953 9.55804 3.10544Z" fill="#3B3F44"/>
<path fill-rule="evenodd" clip-rule="evenodd" d="M10.4422 16.8946C10.1981 17.1387 9.80239 17.1387 9.5583 16.8946L4.96237 12.2991C4.71829 12.055 4.71827 11.6593 4.96234 11.4152C5.2064 11.1711 5.60213 11.1711 5.84622 11.4152L10.4421 16.0107C10.6862 16.2548 10.6863 16.6505 10.4422 16.8946Z" fill="#3B3F44"/>
</svg>
