<svg width="20" height="20" viewBox="0 0 20 20" fill="none" xmlns="http://www.w3.org/2000/svg">
<path fill-rule="evenodd" clip-rule="evenodd" d="M1.04167 18.156C1.04167 17.8108 1.32149 17.531 1.66667 17.531H18.3333C18.6785 17.531 18.9583 17.8108 18.9583 18.156C18.9583 18.5012 18.6785 18.781 18.3333 18.781H1.66667C1.32149 18.781 1.04167 18.5012 1.04167 18.156Z" fill="#A19FA1"/>
<path fill-rule="evenodd" clip-rule="evenodd" d="M8.125 7.13403C8.125 6.78885 8.40482 6.50903 8.75 6.50903H11.25C11.5952 6.50903 11.875 6.78885 11.875 7.13403C11.875 7.47921 11.5952 7.75903 11.25 7.75903H8.75C8.40482 7.75903 8.125 7.47921 8.125 7.13403Z" fill="#A19FA1"/>
<path fill-rule="evenodd" clip-rule="evenodd" d="M1.8752 9.82285C1.8752 9.47767 2.15502 9.19785 2.50019 9.19784L17.5001 9.19764C17.8452 9.19764 18.1251 9.47745 18.1251 9.82263C18.1251 10.1678 17.8453 10.4476 17.5001 10.4476L2.50021 10.4478C2.15503 10.4478 1.87521 10.168 1.8752 9.82285Z" fill="#A19FA1"/>
<path fill-rule="evenodd" clip-rule="evenodd" d="M4.36666 18.1561V9.82274H5.61666V18.1561H4.36666Z" fill="#A19FA1"/>
<path fill-rule="evenodd" clip-rule="evenodd" d="M14.9917 12.9477H4.99166V11.6977H14.9917V12.9477Z" fill="#A19FA1"/>
<path fill-rule="evenodd" clip-rule="evenodd" d="M14.9917 15.4477H4.99166V14.1977H14.9917V15.4477Z" fill="#A19FA1"/>
<path fill-rule="evenodd" clip-rule="evenodd" d="M14.3667 18.1561V9.82274H15.6167V18.1561H14.3667Z" fill="#A19FA1"/>
<path fill-rule="evenodd" clip-rule="evenodd" d="M10.4628 4.43763C10.1713 4.29307 9.82892 4.29307 9.53737 4.43763L3.70414 7.32987C3.34953 7.5057 3.1252 7.86731 3.1252 8.26312V18.1443C3.1252 18.4895 2.84538 18.7693 2.5002 18.7693C2.15502 18.7693 1.8752 18.4895 1.8752 18.1443V8.26312C1.8752 7.39234 2.36872 6.59679 3.14887 6.20997L8.9821 3.31773C9.62351 2.9997 10.3767 2.9997 11.0181 3.31773L16.8513 6.20997C17.6315 6.59679 18.125 7.39234 18.125 8.26312V18.1443C18.125 18.4895 17.8452 18.7693 17.5 18.7693C17.1548 18.7693 16.875 18.4895 16.875 18.1443V8.26312C16.875 7.86731 16.6507 7.5057 16.2961 7.32987L10.4628 4.43763Z" fill="#A19FA1"/>
</svg>
